<svg width="74" height="83" viewBox="0 0 74 83" fill="none" xmlns="http://www.w3.org/2000/svg">
<path d="M72.7985 52.7684C72.7985 49.0105 69.2948 45.533 65.2975 45.0145L64.9136 59.4929C64.9136 59.4929 64.9136 59.7708 64.8774 60.2445C69.0729 59.893 72.7972 56.6523 72.7972 52.7684H72.7985ZM22.6176 67.3553C25.3933 73.5064 23.763 70.5673 24.6953 72.2001C25.6264 73.8329 27.8151 77.5211 33.1423 72.6488H40.4326C45.7598 77.5199 47.9486 73.8329 48.8796 72.2001C49.8107 70.5673 48.8148 73.5637 51.5906 67.4126C54.3664 61.2615 44.8412 62.948 42.9791 63.2745C41.1169 63.6011 37.0972 62.6862 37.0972 62.6862H36.6747C36.6747 62.6862 32.2561 63.6011 30.394 63.2745C28.5318 62.948 19.8443 61.2055 22.6201 67.3566L22.6176 67.3553ZM18.978 62.1839C28.993 59.0267 36.7869 61.532 36.7869 61.532C36.7869 61.532 46.3943 59.2187 53.1449 61.6816C59.8955 64.1445 60.5274 60.5349 61.0746 58.6191C61.6218 56.7034 62.078 54.5134 62.4432 52.5067C62.6588 51.3188 63.2583 45.9729 63.712 42.5403C59.3022 39.8144 52.4506 36.4441 37.0199 36.8716L36.8803 36.8753L36.3656 36.9651C20.8439 36.5375 15.432 39.5402 11.0134 42.2773C11.856 47.1521 13.0662 54.9846 13.7343 58.4895C14.8287 64.2367 17.9061 62.5229 18.9793 62.1839H18.978ZM9.40052 60.6097C9.32698 59.7895 9.29083 58.7139 9.24846 58.3212C9.04778 56.4666 8.80473 50.0313 8.66637 44.9634C4.67783 45.4881 1.2053 47.6569 1.2053 52.8096C1.2053 56.7744 5.08167 60.3716 9.40052 60.6097Z" fill="#EAAF83"/>
<path d="M60.8765 9.51639C55.8833 4.09321 48.1268 0.759033 38.047 0.759033C37.7479 0.759033 37.4463 0.761533 37.1421 0.766519C15.5753 1.11053 8.75989 15.827 6.9962 23.6857C16.0652 19.1126 28.6179 17.6817 37.1558 17.8176C45.8534 17.6717 57.8701 18.5666 67.0089 23.3541C66.4679 19.3569 64.9548 13.9462 60.8765 9.51639ZM71.2666 33.3155C71.1968 32.5714 71.1333 31.8959 71.0921 31.325C70.7967 27.2006 67.6059 25.154 67.5909 25.144C58.6142 19.9228 46.2747 18.0569 37.349 18.189H37.2094C28.3 18.0531 14.8823 19.5114 5.92054 24.724C5.88813 24.7439 2.86059 27.2131 2.56394 31.3624C2.52281 31.9333 2.11647 32.5378 2.04668 33.2819C1.71139 36.8317 1.28511 43.6982 3.17219 45.0145C3.672 45.3622 5.18391 45.0817 6.14116 44.6256C6.92516 44.2491 7.67302 43.8129 8.42212 43.3567C8.42212 43.3393 8.42212 43.3218 8.42087 43.3044C8.46075 43.3019 8.49441 43.2906 8.5343 43.2881C8.91196 43.0576 9.28714 42.8295 9.67353 42.5877C14.0846 39.8169 19.5065 36.4092 34.2666 36.4092C35.1927 36.4092 36.155 36.4229 37.1558 36.4503C54.1159 35.9916 59.9516 39.6436 64.6382 42.5877C65.8285 43.3355 66.954 44.0422 68.1705 44.6256C69.129 45.083 69.837 45.1366 70.3381 44.7888C72.2251 43.4726 71.6019 36.8653 71.2679 33.3168L71.2666 33.3155Z" fill="#E4190F"/>
<path d="M56.4841 45.6926C52.9492 43.4253 49.1614 42.7909 45.381 44.6182C48.2378 40.9362 54.2243 41.8199 56.4841 45.6926Z" fill="black"/>
<path d="M28.5119 43.6559C24.5009 42.402 20.6831 42.812 17.5184 45.5704C19.2597 41.2877 25.3472 40.5136 28.5119 43.6559Z" fill="black"/>
<path d="M0.00251007 52.7348C0.00251007 50.0288 1.34866 47.6095 3.45635 46.0016C3.34043 45.9443 3.22949 45.8795 3.12106 45.8047C0.613258 44.0547 1.2078 37.7491 1.64156 33.1448C1.71011 32.4119 1.77367 31.7463 1.81356 31.1829C2.15758 26.3792 5.78715 24.0771 5.95667 23.9724C6.0489 23.9188 6.14737 23.8714 6.24085 23.8191C7.87241 15.8233 14.0123 0.375136 37.1321 0.00619514C48.0346 -0.1521 56.3308 2.72342 61.7327 8.59904C66.4155 13.6919 67.9025 19.8729 68.335 24.1058C69.0991 24.6417 71.9733 26.9301 72.2787 31.1829C72.3186 31.7451 72.3822 32.4119 72.4507 33.1448C72.8845 37.7491 73.479 44.0547 70.9712 45.8047C70.798 45.9244 70.6135 46.0141 70.4215 46.0864C72.4644 47.6955 73.7644 50.0774 73.7644 52.7348C73.7644 57.3752 69.812 61.1756 64.8338 61.4734C64.0573 67.0038 59.8531 81.8138 37.0923 82.4071C13.9188 83.0116 10.0474 68.4459 9.19237 61.4859C4.09201 61.3077 1.52588e-05 57.4575 1.52588e-05 52.7348H0.00251007ZM60.768 9.46655C55.7749 4.04337 48.1393 1.29625 38.0582 1.29625C37.7591 1.29625 37.4575 1.29875 37.1533 1.30374C15.5865 1.64775 9.42297 15.1926 7.65928 23.0513C16.7282 18.4782 28.5082 17.6318 37.0461 17.7664C45.7437 17.6206 57.7604 18.5156 66.8992 23.3031C66.3582 19.3058 64.8451 13.8951 60.7668 9.4653L60.768 9.46655ZM71.1582 33.2657C71.0884 32.5216 71.0248 31.846 70.9837 31.2752C70.6883 27.1508 67.4974 25.1041 67.4825 25.0942C58.5058 19.8729 46.0415 18.9344 37.1159 19.0665L36.9763 19.069V19.0665C28.0669 18.9306 15.589 19.8729 6.62599 25.0854C6.59358 25.1054 3.40649 27.1258 3.1086 31.2764C3.06746 31.8473 3.00389 32.5228 2.93409 33.2669C2.59881 36.8167 1.97684 43.424 3.86391 44.739C4.36373 45.0868 5.0742 45.0332 6.0302 44.5757C6.81419 44.1993 7.56206 43.7631 8.31115 43.3069C8.31115 43.2894 8.31115 43.2719 8.30991 43.2545C8.34979 43.252 8.38345 43.2408 8.42333 43.2383C8.801 43.0077 9.17618 42.7796 9.56256 42.5378C13.9736 39.767 19.3956 36.3593 34.1557 36.3593C35.0818 36.3593 36.044 36.373 37.0449 36.4004C54.0049 35.9417 59.8407 39.5938 64.5272 42.5378C65.7176 43.2857 66.8431 43.9924 68.0596 44.5757C69.0181 45.0332 69.726 45.0868 70.2271 44.739C72.1142 43.4228 71.491 36.8155 71.1569 33.2669L71.1582 33.2657ZM72.4669 52.7348C72.4669 48.9768 69.382 45.8682 65.3848 45.3497L65.0121 59.4169C65.0121 59.4169 65.0121 59.6948 64.9759 60.1684C69.1714 59.817 72.4669 56.6186 72.4669 52.7348ZM22.7148 67.2793C25.4906 73.4303 27.9124 77.4438 33.2396 72.5728H40.5299C45.8571 77.4438 48.2789 73.4303 51.0547 67.2793C53.8304 61.1282 45.0195 63.8504 43.1561 64.1769C41.2939 64.5035 37.096 62.9405 37.096 62.9405H36.6735C36.6735 62.9405 32.4755 64.5035 30.6134 64.1769C28.7512 63.8504 19.939 61.1294 22.7148 67.2793ZM19.0752 62.1079C29.0902 58.9507 36.8841 61.456 36.8841 61.456C36.8841 61.456 46.4915 59.1426 53.2421 61.6055C59.9927 64.0685 59.7198 60.146 60.2669 58.2303C60.8141 56.3145 61.2703 54.1245 61.6355 52.1178C61.8511 50.93 62.4507 46.4865 62.9044 43.0538C58.4945 40.3279 52.5479 37.2705 37.1172 37.698L36.9776 37.7017V37.698C21.4559 37.2705 15.5292 40.3653 11.1106 43.1037C11.9532 47.9784 13.1635 54.9085 13.8316 58.4135C14.9259 64.1607 18.0033 62.4469 19.0765 62.1079H19.0752ZM9.05651 60.1796C8.98297 59.3595 8.94683 58.7139 8.90445 58.3212C8.70377 56.4666 8.50559 50.4239 8.36848 45.356C4.37994 45.8807 1.30378 48.9831 1.30378 52.7348C1.30378 56.6996 4.73891 59.9428 9.05775 60.1809L9.05651 60.1796Z" fill="black"/>
<path d="M42.3808 65.9556C40.0288 69.746 34.4361 69.7435 31.6267 66.4816C35.2189 68.4808 39.1401 68.5369 42.3808 65.9556Z" fill="black"/>
<path d="M40.2208 52.0181C41.6168 53.5138 41.2142 56.246 39.367 57.1721C38.2477 57.8065 36.7981 57.5697 36.1437 56.7034L36.2011 56.5863C37.0237 56.9864 38.0508 56.8792 38.7699 56.3395C40.3429 55.2551 39.9977 52.6239 38.2041 51.9757C37.3702 51.633 36.3494 51.7963 35.6576 52.3933L35.5729 52.2948C36.2684 50.5785 39.0641 50.5436 40.222 52.0169L40.2208 52.0181Z" fill="black"/>
<path d="M23.6795 48.8023C24.7003 48.8023 25.5292 50.3554 25.5292 52.2699C25.5292 54.1844 24.7016 55.7374 23.6795 55.7374C22.6574 55.7374 21.8298 54.1844 21.8298 52.2699C21.8298 50.3554 22.6574 48.8023 23.6795 48.8023Z" fill="black"/>
<path d="M49.9728 48.8609C50.9936 48.8609 51.8225 50.414 51.8225 52.3285C51.8225 54.243 50.9949 55.796 49.9728 55.796C48.9507 55.796 48.1231 54.243 48.1231 52.3285C48.1231 50.414 48.9507 48.8609 49.9728 48.8609Z" fill="black"/>
</svg>
