<svg width="74" height="63" viewBox="0 0 74 63" fill="none" xmlns="http://www.w3.org/2000/svg">
<path d="M8.30995 43.8005C4.06471 43.8005 0.623249 40.359 0.623249 36.1138C0.623249 31.8686 4.06471 28.4271 8.30995 28.4271C12.5552 28.4271 15.9966 31.8686 15.9966 36.1138C15.9966 40.359 12.5552 43.8005 8.30995 43.8005Z" fill="#FFEC00"/>
<path d="M65.69 43.7232C61.4448 43.7232 58.0034 40.2818 58.0034 36.0365C58.0034 31.7913 61.4448 28.3499 65.69 28.3499C69.9353 28.3499 73.3767 31.7913 73.3767 36.0365C73.3767 40.2818 69.9353 43.7232 65.69 43.7232Z" fill="#0000FF"/>
<path d="M8.31003 44.4249C12.8919 44.4249 16.6199 40.6969 16.6199 36.115C16.6199 31.5332 12.8919 27.8051 8.31003 27.8051C3.72819 27.8051 0.000120163 31.5332 0.000120163 36.115C0.000120163 40.6969 3.72819 44.4249 8.31003 44.4249ZM8.31003 29.0503C12.2051 29.0503 15.3735 32.2187 15.3735 36.1138C15.3735 40.0088 12.2051 43.1772 8.31003 43.1772C4.41496 43.1772 1.24654 40.0088 1.24654 36.1138C1.24654 32.2187 4.41496 29.0503 8.31003 29.0503Z" fill="black"/>
<path d="M65.6901 44.3464C70.272 44.3464 74 40.6184 74 36.0365C74 31.4547 70.272 27.7267 65.6901 27.7267C61.1083 27.7267 57.3802 31.4547 57.3802 36.0365C57.3802 40.6184 61.1083 44.3464 65.6901 44.3464ZM65.6901 28.9718C69.5852 28.9718 72.7536 32.1402 72.7536 36.0353C72.7536 39.9304 69.5852 43.0988 65.6901 43.0988C61.7951 43.0988 58.6267 39.9304 58.6267 36.0353C58.6267 32.1402 61.7951 28.9718 65.6901 28.9718Z" fill="black"/>
<path d="M9.92651 31.4758C9.92651 48.5157 15.9978 61.9895 36.9352 62.3285C58.001 62.6688 63.9439 48.5157 63.9439 31.4758C63.9439 14.436 58.0022 0.623199 36.9352 0.623199C15.8682 0.623199 9.92651 14.436 9.92651 31.4758Z" fill="#EAAF83"/>
<mask id="mask0_637_1698" style="mask-type:luminance" maskUnits="userSpaceOnUse" x="9" y="0" width="55" height="63">
<path d="M9.92651 31.4758C9.92651 48.5157 15.9978 61.9895 36.9352 62.3285C58.001 62.6688 63.9439 48.5157 63.9439 31.4758C63.9439 14.436 58.0022 0.623199 36.9352 0.623199C15.8682 0.623199 9.92651 14.436 9.92651 31.4758Z" fill="white"/>
</mask>
<g mask="url(#mask0_637_1698)">
<path d="M4.82221 14.3102H35.3782V50.5686H4.82221V14.3102Z" fill="white"/>
<path d="M4.19909 51.1918H36.0015V13.687H4.19909V51.1918ZM34.7551 49.9454H5.44551V14.9334H34.7551V49.9454Z" fill="black"/>
<path d="M6.60832 45.2227H37.1643V71.7876H6.60832V45.2227Z" fill="white"/>
<path d="M5.98641 72.4108H37.7888V44.5994H5.98641V72.4108ZM36.5412 71.1644H7.23158V45.8458H36.5412V71.1644Z" fill="black"/>
<path d="M50.4113 0.56839H80.9673V45.2227H50.4113V0.56839Z" fill="white"/>
<path d="M49.7894 45.8459H81.5918V-0.0548096H49.7894V45.8459ZM80.3442 44.5995H51.0346V1.19161H80.3442V44.5995Z" fill="black"/>
<path d="M48.6665 42.5366H79.2224V58.5058H48.6665V42.5366Z" fill="#0000FF"/>
<path d="M48.0433 59.129H79.8457V41.9134H48.0433V59.129ZM78.5993 57.8826H49.2897V43.1598H78.5993V57.8826Z" fill="black"/>
<path d="M31.7337 15.7161H57.7989V56.6935H31.7337V15.7161Z" fill="#E51A1A"/>
<path d="M31.1118 57.3167H58.4234V15.0929H31.1118V57.3167ZM57.1757 56.0703H32.357V16.3393H57.1757V56.0703Z" fill="black"/>
<path d="M31.7537 52.6513H68.7288V72.0169H31.7537V52.6513Z" fill="black"/>
<path d="M31.1306 72.6402H69.3521V52.0281H31.1306V72.6402ZM68.1057 71.3937H32.377V53.2745H68.1057V71.3937Z" fill="black"/>
<path d="M-6.24474 -10.8389H57.7989V18.3498H-6.24474V-10.8389Z" fill="black"/>
<path d="M-6.86662 18.973H58.4221V-11.4621H-6.86662V18.973ZM57.1757 17.7266H-5.62019V-10.2156H57.1757V17.7266Z" fill="black"/>
</g>
<path d="M23.7305 32.3808C22.7047 32.3808 21.8708 33.9388 21.8708 35.8533C21.8708 37.7678 22.7059 39.3259 23.7305 39.3259C24.755 39.3259 25.5901 37.7678 25.5901 35.8533C25.5901 33.9388 24.755 32.3808 23.7305 32.3808ZM21.9032 35.8546C21.9032 33.9575 22.7221 32.4157 23.7292 32.4157C24.7363 32.4157 25.5552 33.9588 25.5552 35.8546C25.5552 37.7504 24.7363 39.2934 23.7292 39.2934C22.7221 39.2934 21.9032 37.7504 21.9032 35.8546Z" fill="black"/>
<path d="M23.7304 32.4144C22.7233 32.4144 21.9044 33.9575 21.9044 35.8533C21.9044 37.7491 22.7233 39.2922 23.7304 39.2922C24.7375 39.2922 25.5564 37.7491 25.5564 35.8533C25.5564 33.9575 24.7375 32.4144 23.7304 32.4144Z" fill="black"/>
<path d="M49.9353 32.4394C48.9095 32.4394 48.0757 33.9974 48.0757 35.9119C48.0757 37.8264 48.9095 39.3844 49.9353 39.3844C50.9611 39.3844 51.795 37.8264 51.795 35.9119C51.795 33.9974 50.9611 32.4394 49.9353 32.4394ZM48.0918 35.9119C48.0918 34.0036 48.917 32.4556 49.9353 32.4556C50.9536 32.4556 51.7788 34.0024 51.7788 35.9119C51.7788 37.8214 50.9536 39.3682 49.9353 39.3682C48.917 39.3682 48.0918 37.8214 48.0918 35.9119Z" fill="black"/>
<path d="M49.9354 32.4556C48.9171 32.4556 48.0919 34.0024 48.0919 35.9119C48.0919 37.8214 48.9171 39.3682 49.9354 39.3682C50.9537 39.3682 51.7788 37.8214 51.7788 35.9119C51.7788 34.0024 50.9537 32.4556 49.9354 32.4556ZM48.1081 35.9119C48.1081 34.0148 48.927 32.473 49.9341 32.473C50.9412 32.473 51.7601 34.0161 51.7601 35.9119C51.7601 37.8077 50.9412 39.3508 49.9341 39.3508C48.927 39.3508 48.1081 37.8077 48.1081 35.9119Z" fill="black"/>
<path d="M49.9353 32.473C48.9282 32.473 48.1093 34.0161 48.1093 35.9119C48.1093 37.8077 48.9282 39.3508 49.9353 39.3508C50.9424 39.3508 51.7613 37.8077 51.7613 35.9119C51.7613 34.0161 50.9424 32.473 49.9353 32.473Z" fill="black"/>
<path d="M37.6632 62.958C45.7961 62.958 52.1702 60.7418 56.6175 56.3669C59.4232 53.6061 61.5122 49.9316 62.8246 45.4457C63.9813 41.4921 64.5684 36.7931 64.5684 31.4759C64.5684 21.77 62.695 14.5121 58.8423 9.28957C56.6437 6.30938 53.7694 4.01846 50.2969 2.47789C46.59 0.833856 42.0942 0 36.9365 0C26.9975 0 19.6449 3.12478 15.0793 9.28833C11.2465 14.4622 9.30336 21.927 9.30336 31.4759C9.30336 41.0247 11.1929 48.3287 15.0805 53.5375C17.2817 56.4865 20.1572 58.7712 23.6272 60.3293C27.3179 61.9858 31.7925 62.8682 36.9253 62.9517C37.1733 62.9555 37.4189 62.958 37.6632 62.958ZM36.9352 1.24642C54.6905 1.24642 63.3207 11.1343 63.3207 31.4759C63.3207 42.4556 60.7706 50.5311 55.7425 55.4782C51.4087 59.7422 45.0781 61.8374 36.944 61.7053C27.3964 61.5507 20.3753 58.5519 16.0776 52.7921C12.3571 47.8065 10.5485 40.834 10.5485 31.4759C10.5485 22.1177 12.4094 14.9857 16.0789 10.0299C20.3952 4.20168 27.4126 1.24517 36.934 1.24517L36.9352 1.24642Z" fill="black"/>
<path d="M56.5313 29.3022C52.9964 27.0349 49.2086 26.4017 45.4282 28.2277C48.285 24.5458 54.2715 25.4295 56.5313 29.3022Z" fill="black"/>
<path d="M28.5591 27.2655C24.5481 26.0116 20.7304 26.4216 17.5657 29.18C19.3069 24.8973 25.3945 24.1232 28.5591 27.2655Z" fill="black"/>
<path d="M37.3488 43.7232C35.504 43.7232 34.0084 42.2277 34.0084 40.3828C34.0084 38.5379 35.504 37.0424 37.3488 37.0424C39.1937 37.0424 40.6892 38.5379 40.6892 40.3828C40.6892 42.2277 39.1937 43.7232 37.3488 43.7232Z" fill="#FACC1C"/>
<path d="M37.3489 44.3464C39.5339 44.3464 41.3125 42.569 41.3125 40.3828C41.3125 38.1966 39.5351 36.4192 37.3489 36.4192C35.1627 36.4192 33.3853 38.1966 33.3853 40.3828C33.3853 42.569 35.1627 44.3464 37.3489 44.3464ZM37.3489 37.6656C38.8471 37.6656 40.0661 38.8846 40.0661 40.3828C40.0661 41.881 38.8471 43.1 37.3489 43.1C35.8507 43.1 34.6317 41.881 34.6317 40.3828C34.6317 38.8846 35.8507 37.6656 37.3489 37.6656Z" fill="black"/>
</svg>
